<svg width="599" height="202" viewBox="0 0 599 202" fill="none" xmlns="http://www.w3.org/2000/svg">
<path d="M139.877 139.63C139.587 139.244 138.427 139.147 137.848 139.63C128.669 147.553 115.529 152.191 102.775 152.191C74.2728 152.191 51.8574 129.582 51.0844 100.403C51.8574 71.2246 74.2728 48.6159 102.775 48.6159C115.626 48.6159 128.766 53.3502 137.848 61.1763C138.427 61.6594 139.587 61.5628 139.877 61.1763L159.2 40.5966C159.587 40.2101 159.587 38.9541 159.007 38.3744C152.534 32.0942 144.997 26.9734 136.882 23.1087L134.756 22.4324L135.142 4.84783C129.732 2.91546 124.128 1.36956 118.524 0.403381L110.118 15.5725L108.089 15.3792C102.582 14.8961 98.7173 14.8961 93.21 15.3792L91.1811 15.6691L82.7753 0.5C77.1714 1.46618 71.5675 3.01208 66.0603 4.94444L66.3501 22.2391L64.5144 23.1087C60.1666 25.1377 55.8187 27.6498 51.6642 30.5483L50.0216 31.7077L35.1424 22.8188C30.698 26.4903 26.64 30.6449 22.9685 34.9928L31.8574 49.872L30.698 51.5145C29.0555 53.8333 27.5096 56.3454 25.7704 59.5338L24.4178 62.1425C24.0313 62.9155 23.6448 63.5918 23.2584 64.3647L22.3888 66.2005L5.0941 66.0072C3.16174 71.4179 1.61584 77.0217 0.649658 82.6256L15.8187 91.0314L15.6255 93.0604C15.3356 95.8623 15.239 98.1812 15.239 100.5C15.239 102.819 15.3356 105.138 15.6255 107.94L15.8187 109.969L0.649658 118.374C1.61584 123.978 3.16174 129.582 5.0941 134.993L22.3888 134.703L23.2584 136.539C23.6448 137.312 24.0313 137.988 24.4178 138.761L25.7704 141.37C27.5096 144.558 29.0555 147.07 30.698 149.389L31.8574 151.031L22.9685 165.911C26.64 170.258 30.7946 174.413 35.1424 178.085L50.0216 169.196L51.6642 170.355C55.8187 173.254 60.1666 175.766 64.5144 177.795L66.3501 178.664L66.0603 196.056C71.4709 197.988 77.0748 199.534 82.6786 200.5L91.0844 185.331L93.1134 185.524C98.6207 186.007 102.485 186.007 107.993 185.524L110.022 185.331L118.427 200.5C124.031 199.534 129.635 197.988 135.046 196.056L134.659 178.471L136.785 177.795C144.901 174.027 152.437 168.809 158.911 162.529C159.49 161.949 159.49 160.693 159.104 160.307L139.877 139.63Z" fill="#FF0000"/>
<path d="M596.767 137.6C597.282 137.6 597.591 137.394 597.797 137.085C598.003 136.776 598.003 136.261 597.797 135.849L582.139 106.901L583.169 106.489C592.852 102.574 598.828 94.4355 598.828 85.2669C598.828 72.6988 588.526 62.5 575.855 62.5H542.889C542.168 62.5 541.756 63.1181 541.756 63.6332V136.467C541.756 136.982 542.168 137.6 542.889 137.6H555.972C556.487 137.6 557.105 137.085 557.105 136.467V107.416H566.274L581.211 137.085C581.314 137.188 581.624 137.497 582.036 137.497H596.767V137.6ZM574.412 95.4657H557.105V76.3044H574.412C579.563 76.3044 583.787 80.5281 583.787 85.679C583.787 90.9329 579.357 95.4657 574.412 95.4657Z" fill="white"/>
<path d="M517.519 137.6C518.241 137.6 518.653 136.982 518.653 136.467V124.517C518.653 124.002 518.241 123.384 517.519 123.384H486.099V106.489H512.162C512.678 106.489 513.296 106.077 513.296 105.355V93.5084C513.296 92.9933 512.781 92.3752 512.162 92.3752H486.099V76.7165H517.622C518.344 76.7165 518.756 76.2014 518.756 75.5833V63.6332C518.756 63.1181 518.344 62.5 517.622 62.5H472.089C471.367 62.5 470.955 63.0151 470.955 63.6332V136.467C470.955 136.982 471.367 137.6 472.089 137.6H517.519Z" fill="white"/>
<path d="M447.955 75.6863V63.6332C447.955 63.1181 447.543 62.5 446.822 62.5H397.992C397.27 62.5 396.858 63.0151 396.858 63.6332V75.5833C396.858 76.0984 397.27 76.7165 397.992 76.7165H414.68V136.467C414.68 136.982 415.196 137.6 415.814 137.6H429C429.515 137.6 430.133 137.085 430.133 136.467V76.7165H446.822C447.543 76.7165 447.955 76.2014 447.955 75.6863Z" fill="white"/>
<path d="M372.725 76.7165C373.446 76.7165 373.858 76.2014 373.858 75.5833V63.6332C373.858 63.1181 373.446 62.5 372.725 62.5H327.191C326.47 62.5 326.058 63.0151 326.058 63.6332V136.467C326.058 136.982 326.47 137.6 327.191 137.6H340.172C340.687 137.6 341.305 137.085 341.305 136.467V108.755H367.368C367.883 108.755 368.501 108.24 368.501 107.622V95.6717C368.501 95.1567 367.986 94.5385 367.368 94.5385H341.305V76.7165H372.725Z" fill="white"/>
<path d="M301.991 137.6C302.398 137.6 302.804 137.498 302.906 137.194C303.109 136.889 303.109 136.584 302.906 136.177L268.963 63.1097C268.76 62.8049 268.354 62.5 268.049 62.5H266.931C266.626 62.5 266.118 62.8049 266.016 63.1097L232.074 136.177C231.871 136.584 231.871 136.889 232.074 137.194C232.277 137.498 232.582 137.6 232.988 137.6H244.878C246.708 137.6 247.521 136.482 247.927 135.568L252.094 126.32H282.886L287.052 135.466C287.967 137.295 288.475 137.6 289.999 137.6H301.991ZM257.683 113.515L266.728 93.5969H267.947L268.354 94.2066L277.296 113.515H257.683V113.515Z" fill="white"/>
<path d="M206.861 137.6C207.376 137.6 207.685 137.394 207.891 137.085C208.097 136.776 208.097 136.261 207.891 135.849L192.233 106.901L193.263 106.489C202.946 102.574 208.922 94.4355 208.922 85.2669C208.922 72.6988 198.62 62.5 185.949 62.5H152.983C152.262 62.5 151.85 63.1181 151.85 63.6332V136.467C151.85 136.982 152.262 137.6 152.983 137.6H166.066C166.581 137.6 167.199 137.085 167.199 136.467V107.416H176.368L191.305 137.085C191.408 137.188 191.718 137.497 192.13 137.497H206.861V137.6ZM184.506 95.4657H167.199V76.3044H184.506C189.657 76.3044 193.881 80.5281 193.881 85.679C193.881 90.9329 189.451 95.4657 184.506 95.4657Z" fill="white"/>
<path d="M103.15 137.6C112.85 137.6 121.65 134.1 128.45 127.5C128.85 127.1 128.85 126.3 128.55 126L120.25 117.1C120.15 116.9 119.85 116.8 119.55 116.8C119.25 116.8 118.95 116.9 118.75 117C114.85 120.4 109.25 122.4 103.85 122.4C91.5497 122.4 81.8497 112.4 81.8497 99.7C81.8497 86.8 91.4497 76.7 103.75 76.7C109.25 76.7 114.75 78.8 118.85 82.4C119.25 82.8 119.85 82.8 120.15 82.4L128.45 73.8C128.65 73.6 128.85 73.3 128.85 73C128.85 72.7 128.75 72.4 128.45 72.2C121.05 65.5 113.35 62.5 103.25 62.5C82.4497 62.6 65.6497 79.5 65.6497 100.2C65.6497 120.8 82.4497 137.6 103.15 137.6Z" fill="white"/>
<path d="M252.857 188.458C252.983 188.71 253.277 188.92 253.571 188.92H253.991C254.327 188.92 254.579 188.71 254.705 188.458L267.473 160.192C267.725 159.646 267.389 159.1 266.759 159.1H265.079C264.743 159.1 264.449 159.352 264.365 159.562L253.907 183.082H253.739L243.281 159.562C243.197 159.352 242.945 159.1 242.567 159.1H240.887C240.257 159.1 239.921 159.646 240.173 160.192L252.857 188.458ZM271.761 187.702C271.761 188.122 272.139 188.5 272.559 188.5H274.239C274.659 188.5 275.037 188.122 275.037 187.702V159.898C275.037 159.478 274.659 159.1 274.239 159.1H272.559C272.139 159.1 271.761 159.478 271.761 159.898V187.702ZM283.081 187.702C283.081 188.122 283.417 188.5 283.837 188.5H293.245C301.351 188.5 307.987 181.906 307.987 173.758C307.987 165.694 301.351 159.1 293.245 159.1H283.837C283.417 159.1 283.081 159.478 283.081 159.898V187.702ZM286.273 185.602V161.956H292.867C299.755 161.956 304.585 166.87 304.585 173.758C304.585 180.688 299.755 185.602 292.867 185.602H286.273ZM314.253 187.702C314.253 188.122 314.589 188.5 315.051 188.5H331.599C332.061 188.5 332.397 188.122 332.397 187.702V186.484C332.397 186.064 332.061 185.686 331.599 185.686H317.487V174.976H329.541C329.961 174.976 330.339 174.64 330.339 174.178V172.96C330.339 172.54 329.961 172.162 329.541 172.162H317.487V161.914H331.599C332.061 161.914 332.397 161.536 332.397 161.116V159.898C332.397 159.478 332.061 159.1 331.599 159.1H315.051C314.589 159.1 314.253 159.478 314.253 159.898V187.702ZM336.112 173.842C336.112 182.242 342.79 188.92 351.19 188.92C359.59 188.92 366.31 182.242 366.31 173.842C366.31 165.442 359.59 158.68 351.19 158.68C342.79 158.68 336.112 165.442 336.112 173.842ZM339.052 173.842C339.052 167.164 344.512 161.62 351.19 161.62C357.868 161.62 363.37 167.164 363.37 173.842C363.37 180.52 357.868 185.98 351.19 185.98C344.512 185.98 339.052 180.52 339.052 173.842ZM380.778 173.842C380.778 182.242 387.54 188.92 395.94 188.92C399.678 188.92 403.164 187.366 405.936 184.846C406.23 184.552 406.314 183.964 405.978 183.712L405.012 182.746C404.676 182.41 404.34 182.368 403.92 182.704C401.694 184.594 399.552 185.854 395.898 185.854C389.262 185.854 384.18 180.268 384.18 173.8C384.18 167.29 389.262 161.704 395.898 161.704C398.964 161.704 401.736 162.964 403.92 164.854C404.34 165.274 404.676 165.316 405.012 164.896L406.146 163.762C406.482 163.426 406.44 162.922 406.104 162.586C403.248 160.15 400.182 158.68 395.94 158.68C387.54 158.68 380.778 165.442 380.778 173.842ZM412.281 187.702C412.281 188.122 412.617 188.5 413.079 188.5H429.627C430.089 188.5 430.425 188.122 430.425 187.702V186.484C430.425 186.064 430.089 185.686 429.627 185.686H415.515V174.976H427.569C427.989 174.976 428.367 174.64 428.367 174.178V172.96C428.367 172.54 427.989 172.162 427.569 172.162H415.515V161.914H429.627C430.089 161.914 430.425 161.536 430.425 161.116V159.898C430.425 159.478 430.089 159.1 429.627 159.1H413.079C412.617 159.1 412.281 159.478 412.281 159.898V187.702ZM436.48 187.702C436.48 188.122 436.858 188.5 437.278 188.5H438.748C439.21 188.5 439.546 188.122 439.546 187.702V164.854H439.588L458.614 188.584C458.782 188.836 458.992 188.92 459.286 188.92H459.622C460.042 188.92 460.42 188.584 460.42 188.164V159.898C460.42 159.478 460.042 159.1 459.622 159.1H458.152C457.69 159.1 457.354 159.478 457.354 159.898V182.284C457.312 182.284 457.312 182.284 457.27 182.284L438.58 159.016C438.412 158.764 438.202 158.68 437.908 158.68H437.278C436.858 158.68 436.48 159.016 436.48 159.436V187.702ZM473.638 187.702C473.638 188.122 474.016 188.5 474.436 188.5H476.032C476.452 188.5 476.83 188.122 476.83 187.702V161.914H484.138C484.6 161.914 484.936 161.536 484.936 161.116V159.898C484.936 159.478 484.6 159.1 484.138 159.1H466.33C465.868 159.1 465.532 159.478 465.532 159.898V161.116C465.532 161.536 465.868 161.914 466.33 161.914H473.638V187.702ZM490.046 187.702C490.046 188.122 490.382 188.5 490.844 188.5H507.392C507.854 188.5 508.19 188.122 508.19 187.702V186.484C508.19 186.064 507.854 185.686 507.392 185.686H493.28V174.976H505.334C505.754 174.976 506.132 174.64 506.132 174.178V172.96C506.132 172.54 505.754 172.162 505.334 172.162H493.28V161.914H507.392C507.854 161.914 508.19 161.536 508.19 161.116V159.898C508.19 159.478 507.854 159.1 507.392 159.1H490.844C490.382 159.1 490.046 159.478 490.046 159.898V187.702ZM514.245 187.702C514.245 188.122 514.581 188.5 515.043 188.5H516.681C517.101 188.5 517.479 188.122 517.479 187.702V176.992H525.501L530.961 187.87C531.171 188.29 531.381 188.5 531.885 188.5H533.901C534.615 188.5 534.909 187.828 534.615 187.282L528.861 176.614C532.515 175.144 535.077 171.91 535.077 168.046C535.077 163.048 530.961 159.1 525.921 159.1H515.043C514.581 159.1 514.245 159.478 514.245 159.898V187.702ZM517.563 174.22V162.166H525.711C528.945 162.166 531.759 164.896 531.759 168.088C531.759 171.532 528.945 174.22 525.711 174.22H517.563Z" fill="white"/>
</svg>
